<svg id="Layer_1" xmlns="http://www.w3.org/2000/svg" xmlns:xlink="http://www.w3.org/1999/xlink" viewBox="0 0 102.33 122.88" style="enable-background:new 0 0 102.33 122.88"><style>.st0{fill-rule:evenodd;clip-rule:evenodd;fill:#ee4323}</style><g><path class="st0" d="M32.92 122.87c-7.37-3.18-14.26-11.28-14.28-19.56-.02-9.03 5.7-16.7 12.82-21.73-.86 3.23-1.32 6.19.8 9.08 1.97 2.69 5.42 3.99 8.68 3.29 7.61-1.67 7.96-10.04 3.45-14.92-4.46-4.83-8.78-10.29-7.08-17.29.85-3.51 3.01-6.8 5.74-9.15-2.1 5.52 3.87 10.96 7.8 13.67 6.82 4.7 14.3 8.26 20.57 13.77 6.59 5.79 11.46 13.62 10.48 22.71-1.07 9.85-8.89 16.69-17.66 20.15 18.54-4.09 37.71-18.49 38.1-39.05.33-16.92-11.28-29.94-25.66-37.4l-.75-.41c.39.96.52 1.77.51 2.5.13-.54.22-1.09.24-1.66.0.68-.09 1.35-.26 2.01l.02-.35c-.21.9-.57 1.76-1.06 2.54l.21-.23c-2.87 4.76-10.63 5.79-14.47.86-6.17-7.92.13-16.47 1.01-24.86C63.21 16.32 56.61 6.11 48.43.0c4.5 7.29-1.43 16.93-6.18 22.31-4.6 5.22-10.2 9.59-15.28 14.33-5.46 5.1-10.71 10.47-15.19 16.45C2.8 65.07-2.69 80.14 1.35 95.08 5.38 110.01 18.31 119.51 32.92 122.87v0 0z"/></g></svg>