<svg viewBox="0 0 400 400" xmlns="http://www.w3.org/2000/svg"><g transform="translate(0 50)"><path d="m227.92 83.451-13.689 24.101-46.815-82.447-143.71 253.06h97.304c0 13.311 10.613 24.101 23.704 24.101h-121.01c-8.4677 0-16.291-4.596-20.525-12.053-4.2332-7.4567-4.2327-16.643 0.00114-24.099l143.71-253.06c4.2342-7.4574 12.06-12.051 20.528-12.051 8.4688 0 16.294 4.594 20.528 12.051l39.97 70.396z" fill="#00C58E"/><path d="m331.66 266.12-90.054-158.57-13.689-24.101-13.689 24.101-90.044 158.57c-4.2338 7.4563-4.2343 16.643-0.00113 24.099 4.2331 7.4567 12.057 12.053 20.525 12.053h166.4c8.4695 0 16.296-4.591 20.532-12.048 4.2356-7.4574 4.2361-16.646 0.00132-24.104h0.01976zm-186.95 12.051 83.21-146.52 83.19 146.52h-166.4z" fill="#2F495E"/><path d="m396.05 290.22c-4.2334 7.4556-12.057 12.051-20.523 12.051h-64.415c13.091 0 23.704-10.791 23.704-24.101h40.662l-115.38-203.18-18.489 32.567-13.689-24.101 11.654-20.516c4.2342-7.4574 12.06-12.051 20.528-12.051 8.4688 0 16.294 4.594 20.528 12.051l115.42 203.18c4.2343 7.457 4.2343 16.644 0 24.101z" fill="#108775"/></g></svg>