<svg version="1.0" viewBox="0 0 1e3 1e3" xmlns="http://www.w3.org/2000/svg"><g transform="translate(0 1e3) scale(.1 -.1)" fill="#0f89e2"><path d="m4670 9994c-503-42-838-109-1271-254-618-207-1185-533-1694-974-101-88-379-366-472-472-436-500-767-1077-973-1693-183-549-260-1022-260-1601s77-1052 260-1601c205-614 539-1195 973-1693 91-104 369-382 473-473 561-489 1208-840 1934-1049 427-123 878-184 1360-184 580 0 1052 77 1601 260 615 206 1195 539 1693 973 104 91 382 369 473 473 491 563 848 1223 1052 1944 119 422 170 782 178 1265 11 624-62 1102-257 1686-206 616-537 1193-973 1693-93 106-371 384-472 472-509 441-1076 767-1694 974-367 123-664 189-1061 236-128 15-751 28-870 18zm2208-3055c262-29 535-123 775-268 114-69 171-121 204-189l28-57 3-1440c2-1002 0-1451-8-1477-6-22-18-39-31-43-21-7-27-4-219 98-549 292-1188 313-1992 63-79-25-258-84-398-131-620-211-976-327-1120-364-653-170-1171-152-1650 56-140 61-305 159-336 200-57 75-54-8-54 1555 0 1609-5 1506 67 1495 19-3 70-29 115-57 113-73 319-171 448-214 408-136 832-128 1367 24 199 56 370 116 887 309 976 366 1279 447 1669 450 81 1 191-4 245-10z"/></g></svg>