<svg version="1.1" viewBox="0 0 16 16" xmlns="http://www.w3.org/2000/svg" xmlns:cc="http://creativecommons.org/ns#" xmlns:dc="http://purl.org/dc/elements/1.1/" xmlns:rdf="http://www.w3.org/1999/02/22-rdf-syntax-ns#"><metadata><rdf:RDF><cc:Work rdf:about=""><dc:format>image/svg+xml</dc:format><dc:type rdf:resource="http://purl.org/dc/dcmitype/StillImage"/><dc:title/></cc:Work></rdf:RDF></metadata><path d="m2.8042 0.072559c-1.0981 0.14662-2.0935 0.79733-2.5017 1.8682-0.37813 0.99217-0.21252 2.1854-0.21252 3.2295v6.1678c0 1.157-0.14652 2.3671 0.56466 3.3619 0.85714 1.1989 2.1354 1.2442 3.4671 1.2442h6.0608c1.0464 0 2.1812 0.1233 3.2149-0.04642 1.1212-0.18408 2.0369-1.0137 2.3709-2.0977 0.29627-0.96147 0.13245-2.1271 0.13245-3.1236v-6.0355c0-1.1632 0.14156-2.4024-0.60342-3.3883-0.90204-1.1938-2.1825-1.1912-3.5338-1.1912h-5.9818c-0.96799 0-2.0188-0.1168-2.9777 0.011231m5.7446 3.3242c-0.6893 0.060461-1.1585 0.76809-1.0014 1.4295-0.2672 0.079335-0.59491-0.037537-0.81689-0.19115-0.17276-0.11954-0.29814-0.28181-0.38837-0.47063-0.33224-0.69546 0.10904-1.5456 0.86269-1.6819 0.56461-0.10208 1.3114 0.28389 1.3439 0.9142m0.052702 0.2204c0.50919-0.085423 1.0238 0.20208 1.18 0.7061 0.058425 0.18848 0.095209 0.76346-0.1579 0.83867-0.36478 0.1084-0.90422 0.00841-1.2856 0.00841-0.11218 0-0.33556 0.043121-0.42244-0.042433-0.11742-0.11567-0.13076-0.33382-0.13094-0.48699-5.802e-4 -0.48334 0.31964-0.94034 0.81689-1.0238m-2.6351 1.8266c0.57749-0.10475 1.2573-0.00872 1.8446-0.00872 0.72917 0 1.5461-0.10496 2.2662 0.00562 0.3856 0.059244 0.50829 0.60654 0.15771 0.80394-0.28383 0.15978-0.78917 0.063982-1.1064 0.063982h-2.2399c-0.2954 0-0.72408 0.078699-1.0014-0.030388-0.40328-0.15865-0.34866-0.75685 0.079055-0.83444m4.1899 1.3943c0 0.091432-0.02448 0.2293 0.02709 0.30964 0.0609 0.0949 0.24731 0.12103 0.34183 0.17924 0.2233 0.13747 0.39409 0.34545 0.47356 0.59645 0.10912 0.34452 0.05348 0.75369 0.05348 1.1118v2.0648c0 0.41465 0.07533 0.90818-0.09036 1.2971-0.16364 0.3841-0.53035 0.61639-0.93735 0.65726-1.1781 0.11834-2.4256 0.0045-3.6101 0.0045-0.51443 0-1.0148-0.0967-1.2699-0.60884-0.19224-0.38592-0.12676-0.87951-0.12676-1.2971v-2.0648c0-0.36753-0.050775-0.78244 0.058503-1.1383 0.068274-0.22236 0.20228-0.42042 0.38948-0.55783 0.096868-0.071101 0.27785-0.1134 0.34183-0.21712 0.054154-0.087752 0.02709-0.23761 0.02709-0.33685h4.3216m-2.1345 4.9237h0.026353l1.0541-1.0589c0.3036-0.30498 0.61436-0.60471 0.6542-1.0589 0.080027-0.91263-1.1887-1.3159-1.7083-0.60884-0.20794-0.18188-0.45419-0.3473-0.73784-0.36822-0.63214-0.046592-1.1216 0.50563-0.9877 1.1359 0.075896 0.35742 0.34663 0.60016 0.59243 0.84708z" fill="#bf1f2f"/></svg>